<svg width="135" height="53" viewBox="0 0 135 53" fill="none" xmlns="http://www.w3.org/2000/svg">
<path d="M132.619 32.2957C133.119 32.2957 133.502 32.4022 133.768 32.6152C134.033 32.8119 134.221 33.0659 134.33 33.3773C134.455 33.6723 134.526 34.0083 134.541 34.3853C134.573 34.7622 134.588 35.1228 134.588 35.467V51.6922C134.588 51.9217 134.534 52.1265 134.424 52.3068C134.315 52.4707 134.143 52.5527 133.908 52.5527H131.892C131.657 52.5527 131.485 52.4707 131.376 52.3068C131.282 52.1265 131.235 51.9217 131.235 51.6922V36.8928H131.118L127.038 47.3655C126.897 47.7424 126.748 48.1112 126.592 48.4718C126.436 48.8159 126.24 49.1273 126.006 49.4059C125.771 49.6682 125.482 49.8812 125.138 50.0451C124.794 50.209 124.357 50.2909 123.825 50.2909C123.45 50.2909 123.114 50.2582 122.817 50.1926C122.52 50.1107 122.246 49.9714 121.996 49.7747C121.746 49.5616 121.504 49.2666 121.269 48.8897C121.05 48.4963 120.824 47.9883 120.589 47.3655L116.509 36.8928H116.392V51.6922C116.392 51.9217 116.337 52.1265 116.227 52.3068C116.134 52.4707 115.97 52.5527 115.735 52.5527H113.718C113.484 52.5527 113.312 52.4707 113.202 52.3068C113.093 52.1265 113.038 51.9217 113.038 51.6922V35.467C113.038 35.0736 113.054 34.6885 113.085 34.3115C113.116 33.9182 113.195 33.574 113.32 33.279C113.445 32.984 113.64 32.7464 113.906 32.5661C114.172 32.3858 114.547 32.2957 115.032 32.2957H117.189C117.611 32.2957 117.947 32.353 118.197 32.4677C118.447 32.5661 118.651 32.7218 118.807 32.9348C118.963 33.1315 119.088 33.3773 119.182 33.6723C119.276 33.951 119.393 34.2624 119.534 34.6065L123.708 45.5709H123.966L128.187 34.6065C128.327 34.2624 128.445 33.951 128.538 33.6723C128.632 33.3773 128.757 33.1315 128.914 32.9348C129.07 32.7382 129.265 32.5825 129.5 32.4677C129.75 32.353 130.086 32.2957 130.508 32.2957H132.619Z" fill="white"/>
<path d="M110.735 32.2957C110.969 32.2957 111.133 32.3858 111.227 32.5661C111.337 32.73 111.391 32.9266 111.391 33.1561V35.0736C111.391 35.3031 111.337 35.5079 111.227 35.6882C111.133 35.8521 110.969 35.934 110.735 35.934H100.769C100.19 35.934 99.737 36.0324 99.4087 36.2291C99.0804 36.4093 98.8303 36.6634 98.6583 36.9911C98.502 37.3189 98.4082 37.7041 98.3769 38.1466C98.3456 38.5891 98.33 39.0644 98.33 39.5724V45.2513C98.33 45.7593 98.3456 46.2428 98.3769 46.7017C98.4082 47.1442 98.502 47.5294 98.6583 47.8572C98.8146 48.1685 99.0569 48.4226 99.3852 48.6193C99.7135 48.7995 100.175 48.8897 100.769 48.8897H107.335C107.522 48.8897 107.671 48.8405 107.78 48.7422C107.89 48.6438 107.968 48.5209 108.015 48.3734C108.062 48.2095 108.085 48.0456 108.085 47.8817C108.101 47.7015 108.108 47.5376 108.108 47.3901V43.9729H102.246C101.996 43.9729 101.824 43.8828 101.73 43.7025C101.636 43.5222 101.589 43.3174 101.589 43.0879C101.589 42.9404 101.574 42.7192 101.543 42.4242C101.527 42.1128 101.527 41.8014 101.543 41.49C101.558 41.1786 101.613 40.9082 101.707 40.6787C101.816 40.4493 101.996 40.3345 102.246 40.3345H110.547C110.844 40.3345 111.055 40.4493 111.18 40.6787C111.305 40.8918 111.368 41.1376 111.368 41.4162V47.9801C111.368 48.4718 111.337 48.988 111.274 49.5289C111.227 50.0533 111.11 50.545 110.922 51.0039C110.735 51.4464 110.461 51.8151 110.102 52.1101C109.758 52.4052 109.281 52.5527 108.671 52.5527H100.652C99.4478 52.5527 98.4629 52.3642 97.6969 51.9872C96.9465 51.6103 96.3603 51.0858 95.9382 50.4139C95.5161 49.7419 95.2269 48.9306 95.0705 47.9801C94.9299 47.0295 94.8595 45.9806 94.8595 44.8334V39.9904C94.8595 38.8759 94.9299 37.8516 95.0705 36.9174C95.2269 35.9832 95.5083 35.172 95.9147 34.4836C96.3368 33.7953 96.923 33.2626 97.6734 32.8857C98.4394 32.4923 99.4321 32.2957 100.652 32.2957H110.735Z" fill="white"/>
<path d="M92.5494 32.2957C92.6432 32.2957 92.7761 32.3448 92.948 32.4432C93.12 32.5415 93.206 32.7791 93.206 33.1561V51.7168C93.206 52.0938 93.12 52.3314 92.948 52.4297C92.7761 52.5281 92.6432 52.5772 92.5494 52.5772H90.392C90.2982 52.5772 90.1653 52.5281 89.9934 52.4297C89.8214 52.3314 89.7354 52.0938 89.7354 51.7168V33.1561C89.7354 32.7791 89.8214 32.5415 89.9934 32.4432C90.1653 32.3448 90.2982 32.2957 90.392 32.2957H92.5494Z" fill="white"/>
<path d="M81.7725 32.2957C83.0388 32.2957 84.0784 32.5087 84.8913 32.9348C85.7198 33.3446 86.3686 33.9182 86.8376 34.6557C87.3066 35.3932 87.627 36.2618 87.799 37.2616C87.9866 38.2613 88.0804 39.343 88.0804 40.5066V44.3417C88.0804 45.5217 87.9866 46.6116 87.799 47.6113C87.627 48.6111 87.3066 49.4797 86.8376 50.2172C86.3686 50.9383 85.7198 51.5119 84.8913 51.9381C84.0784 52.3478 83.0388 52.5527 81.7725 52.5527H73.7762C73.5574 52.5527 73.3229 52.5117 73.0728 52.4297C72.8383 52.3314 72.6194 52.2003 72.4162 52.0364C72.2286 51.8725 72.0644 51.684 71.9237 51.471C71.7987 51.2415 71.7361 50.9957 71.7361 50.7335V33.9673C71.7361 33.4593 71.9159 33.0578 72.2755 32.7627C72.6507 32.4514 73.0884 32.2957 73.5887 32.2957H81.7725ZM81.7022 48.9143C82.3744 48.9143 82.8981 48.8077 83.2733 48.5947C83.6641 48.3816 83.9533 48.0866 84.1409 47.7097C84.3441 47.3163 84.4692 46.8656 84.5161 46.3576C84.5786 45.8495 84.6099 45.3005 84.6099 44.7104V40.1379C84.6099 39.5479 84.5786 38.9988 84.5161 38.4908C84.4692 37.9827 84.3441 37.5402 84.1409 37.1632C83.9533 36.7863 83.6641 36.4913 83.2733 36.2782C82.8981 36.0488 82.3744 35.934 81.7022 35.934H75.2067V48.9143H81.7022Z" fill="white"/>
<path d="M61.6419 32.0251C62.064 32.0251 62.4236 32.0907 62.7206 32.2218C63.0332 32.3529 63.299 32.5332 63.5179 32.7627C63.7524 32.9757 63.9478 33.2379 64.1041 33.5493C64.2761 33.8607 64.4324 34.2049 64.5731 34.5819L71.1624 51.6184C71.2249 51.7823 71.2562 51.9216 71.2562 52.0363C71.2562 52.2002 71.2015 52.3313 71.092 52.4296C70.9982 52.528 70.8732 52.5771 70.7168 52.5771H68.2078C67.8795 52.5771 67.6528 52.3969 67.5277 52.0363L61.6888 36.7698H61.595L58.5466 44.8087H61.4543C61.767 44.8087 61.9937 44.9726 62.1344 45.3004C62.1813 45.4151 62.2516 45.5954 62.3454 45.8412C62.4548 46.0706 62.5564 46.3083 62.6502 46.5541C62.7597 46.8 62.8457 47.0376 62.9082 47.2671C62.9864 47.4801 63.0254 47.644 63.0254 47.7587C63.0254 47.9882 62.9551 48.1767 62.8144 48.3242C62.6737 48.4717 62.4939 48.5454 62.275 48.5454H57.1396L55.803 52.0609C55.6779 52.4051 55.4591 52.5771 55.1464 52.5771H52.567C52.2074 52.5771 52.0276 52.3969 52.0276 52.0363C52.0276 51.8724 52.0511 51.7331 52.098 51.6184L58.6404 34.5819C58.9218 33.8443 59.2892 33.2379 59.7425 32.7627C60.1959 32.271 60.829 32.0251 61.6419 32.0251Z" fill="white"/>
<path d="M48.072 44.1204C48.1658 44.2679 48.33 44.5547 48.5644 44.9809C48.7989 45.3906 49.0725 45.8741 49.3852 46.4313C49.6978 46.9721 50.0183 47.5458 50.3466 48.1522C50.6905 48.7422 51.0032 49.3076 51.2846 49.8484C51.5816 50.3729 51.8161 50.8236 51.9881 51.2005C52.1757 51.5611 52.2695 51.7906 52.2695 51.8889C52.2695 52.0692 52.2304 52.2249 52.1522 52.356C52.074 52.4871 51.9333 52.5527 51.7301 52.5527H49.1507C48.9631 52.5527 48.8146 52.5199 48.7051 52.4543C48.5957 52.3724 48.4941 52.2413 48.4003 52.061L44.156 44.1942H39.2081V51.6922C39.2081 51.9217 39.1534 52.1265 39.044 52.3068C38.9502 52.4707 38.786 52.5527 38.5515 52.5527H36.4176C36.1831 52.5527 36.0112 52.4707 35.9018 52.3068C35.7923 52.1265 35.7376 51.9217 35.7376 51.6922V41.3916C35.7376 41.1622 35.7845 40.9655 35.8783 40.8016C35.9877 40.6377 36.1675 40.5558 36.4176 40.5558H46.6181C46.9777 40.5558 47.2591 40.4984 47.4623 40.3837C47.6812 40.2526 47.8453 40.0805 47.9548 39.8674C48.0642 39.6544 48.1345 39.4085 48.1658 39.1299C48.2127 38.8513 48.2362 38.5563 48.2362 38.2449C48.2362 37.9335 48.2127 37.6385 48.1658 37.3599C48.1345 37.0813 48.0642 36.8355 47.9548 36.6224C47.8453 36.4093 47.6812 36.2454 47.4623 36.1307C47.2591 35.9996 46.9777 35.934 46.6181 35.934H36.4176C36.1675 35.934 35.9877 35.8521 35.8783 35.6882C35.7845 35.5243 35.7376 35.3276 35.7376 35.0982V33.1561C35.7376 32.9266 35.7845 32.73 35.8783 32.5661C35.9877 32.3858 36.1675 32.2957 36.4176 32.2957H47.2278C48.1189 32.2957 48.8537 32.4514 49.4321 32.7627C50.0105 33.0741 50.4638 33.5003 50.7921 34.0411C51.1361 34.5819 51.3784 35.2129 51.5191 35.934C51.6598 36.6552 51.7301 37.4255 51.7301 38.2449C51.7301 38.9333 51.6754 39.6134 51.566 40.2854C51.4722 40.9409 51.2846 41.5391 51.0032 42.08C50.7374 42.6044 50.3701 43.0551 49.9011 43.4321C49.4321 43.7926 48.8224 44.0221 48.072 44.1204Z" fill="white"/>
<path d="M25.6434 32.0251C26.0654 32.0251 26.425 32.0907 26.722 32.2218C27.0347 32.3529 27.3004 32.5332 27.5193 32.7627C27.7538 32.9757 27.9492 33.2379 28.1055 33.5493C28.2775 33.8607 28.4338 34.2049 28.5745 34.5819L35.1638 51.6184C35.2264 51.7823 35.2576 51.9216 35.2576 52.0363C35.2576 52.2002 35.2029 52.3313 35.0935 52.4296C34.9997 52.528 34.8746 52.5771 34.7183 52.5771H32.2092C31.8809 52.5771 31.6542 52.3969 31.5292 52.0363L25.6903 36.7698H25.5965L22.548 44.8087H25.4558C25.7684 44.8087 25.9951 44.9726 26.1358 45.3004C26.1827 45.4151 26.253 45.5954 26.3468 45.8412C26.4563 46.0706 26.5579 46.3083 26.6517 46.5541C26.7611 46.8 26.8471 47.0376 26.9096 47.2671C26.9878 47.4801 27.0269 47.644 27.0269 47.7587C27.0269 47.9882 26.9565 48.1767 26.8158 48.3242C26.6751 48.4717 26.4953 48.5454 26.2765 48.5454H21.1411L19.8044 52.0609C19.6794 52.4051 19.4605 52.5771 19.1479 52.5771H16.5684C16.2089 52.5771 16.0291 52.3969 16.0291 52.0363C16.0291 51.8724 16.0525 51.7331 16.0994 51.6184L22.6418 34.5819C22.9232 33.8443 23.2906 33.2379 23.7439 32.7627C24.1973 32.271 24.8304 32.0251 25.6434 32.0251Z" fill="white"/>
<path d="M13.6629 32.2957C14.554 32.2957 15.2887 32.4514 15.8671 32.7627C16.4456 33.0578 16.8989 33.4757 17.2272 34.0165C17.5711 34.541 17.8056 35.1638 17.9307 35.8849C18.0714 36.5896 18.1417 37.3517 18.1417 38.1712C18.1417 38.9906 18.0714 39.7691 17.9307 40.5066C17.8056 41.2277 17.5711 41.8587 17.2272 42.3996C16.8989 42.9404 16.4456 43.3747 15.8671 43.7025C15.2887 44.0139 14.554 44.1696 13.6629 44.1696H5.64319V51.7168C5.64319 51.9463 5.58847 52.1511 5.47904 52.3314C5.38524 52.4953 5.2211 52.5772 4.9866 52.5772H2.82925C2.59476 52.5772 2.4228 52.4953 2.31336 52.3314C2.21957 52.1511 2.17267 51.9463 2.17267 51.7168V41.3916C2.17267 41.1622 2.21957 40.9655 2.31336 40.8016C2.4228 40.6377 2.59476 40.5558 2.82925 40.5558H13.0532C13.4128 40.5558 13.6942 40.4984 13.8974 40.3837C14.1163 40.2526 14.2804 40.0805 14.3898 39.8674C14.4993 39.6544 14.5696 39.4085 14.6009 39.1299C14.6478 38.8513 14.6712 38.5563 14.6712 38.2449C14.6712 37.9335 14.6478 37.6385 14.6009 37.3599C14.5696 37.0813 14.4993 36.8354 14.3898 36.6224C14.2804 36.4093 14.1163 36.2454 13.8974 36.1307C13.6942 35.9996 13.4128 35.934 13.0532 35.934H2.82925C2.59476 35.934 2.4228 35.8521 2.31336 35.6882C2.21957 35.5243 2.17267 35.3276 2.17267 35.0982C2.17267 34.9179 2.15703 34.6721 2.12577 34.3607C2.11014 34.0493 2.11014 33.7379 2.12577 33.4265C2.1414 33.1151 2.19612 32.8529 2.28991 32.6398C2.39935 32.4104 2.57912 32.2957 2.82925 32.2957H13.6629Z" fill="white"/>
<path d="M109.527 1.08008C110.793 1.08008 111.833 1.29314 112.646 1.71925C113.474 2.12898 114.123 2.7026 114.592 3.44012C115.061 4.17763 115.382 5.04625 115.554 6.04599C115.741 7.04573 115.835 8.12741 115.835 9.29104V13.1261C115.835 14.3061 115.741 15.396 115.554 16.3957C115.382 17.3955 115.061 18.2641 114.592 19.0016C114.123 19.7227 113.474 20.2964 112.646 20.7225C111.833 21.1322 110.793 21.3371 109.527 21.3371H101.531C101.312 21.3371 101.078 21.2961 100.827 21.2142C100.593 21.1158 100.374 20.9847 100.171 20.8208C99.9832 20.6569 99.8191 20.4684 99.6784 20.2554C99.5533 20.0259 99.4908 19.7801 99.4908 19.5179V2.75177C99.4908 2.24371 99.6706 1.84217 100.03 1.54717C100.405 1.23578 100.843 1.08008 101.343 1.08008H109.527ZM109.457 17.6987C110.129 17.6987 110.653 17.5922 111.028 17.3791C111.419 17.166 111.708 16.871 111.896 16.4941C112.099 16.1007 112.224 15.65 112.271 15.142C112.333 14.6339 112.365 14.0849 112.365 13.4949V8.92229C112.365 8.33228 112.333 7.78324 112.271 7.27518C112.224 6.76711 112.099 6.32461 111.896 5.94765C111.708 5.5707 111.419 5.2757 111.028 5.06264C110.653 4.83319 110.129 4.71847 109.457 4.71847H102.961V17.6987H109.457Z" fill="white"/>
<path d="M97.4345 1.08008C97.5283 1.08008 97.6612 1.12925 97.8332 1.22758C98.0051 1.32592 98.0911 1.56356 98.0911 1.94051V3.85804C98.0911 4.23499 98.0051 4.47263 97.8332 4.57097C97.6612 4.6693 97.5283 4.71847 97.4345 4.71847H83.9511C83.8573 4.71847 83.7245 4.6775 83.5525 4.59555C83.3962 4.49722 83.318 4.25957 83.318 3.88262V1.96509C83.318 1.57175 83.3962 1.32592 83.5525 1.22758C83.7245 1.12925 83.8573 1.08008 83.9511 1.08008H97.4345ZM86.8354 15.4616C86.8354 16.2974 87.0386 16.8792 87.4451 17.207C87.8672 17.5348 88.4378 17.6987 89.1569 17.6987H97.4111C97.6612 17.6987 97.8332 17.7806 97.927 17.9445C98.0364 18.1084 98.0911 18.3051 98.0911 18.5345V20.5012C98.0911 20.7307 98.0364 20.9273 97.927 21.0912C97.8332 21.2551 97.6612 21.3371 97.4111 21.3371H89.0866C87.961 21.3371 87.023 21.1732 86.2726 20.8454C85.5379 20.5012 84.9516 20.0177 84.5139 19.395C84.0762 18.7722 83.7635 18.0265 83.5759 17.1578C83.404 16.2728 83.318 15.2895 83.318 14.2078V10.9627C83.318 10.7661 83.3493 10.5694 83.4118 10.3727C83.4743 10.1597 83.5759 9.97939 83.7166 9.83189C83.873 9.66799 84.0684 9.53688 84.3029 9.43855C84.553 9.34021 84.8578 9.29104 85.2174 9.29104H97.3173C97.5518 9.29104 97.7159 9.37299 97.8097 9.53688C97.9192 9.70077 97.9739 9.89744 97.9739 10.1269V12.069C97.9739 12.2985 97.9192 12.5033 97.8097 12.6836C97.7159 12.8475 97.5518 12.9294 97.3173 12.9294H86.8354V15.4616Z" fill="white"/>
<path d="M78.1899 12.9049C78.2837 13.0524 78.4478 13.3392 78.6823 13.7653C78.9168 14.175 79.1904 14.6585 79.503 15.2157C79.8157 15.7566 80.1362 16.3302 80.4645 16.9366C80.8084 17.5266 81.121 18.092 81.4024 18.6329C81.6995 19.1573 81.934 19.608 82.1059 19.985C82.2935 20.3455 82.3873 20.575 82.3873 20.6733C82.3873 20.8536 82.3482 21.0093 82.2701 21.1404C82.1919 21.2715 82.0512 21.3371 81.848 21.3371H79.2685C79.0809 21.3371 78.9324 21.3043 78.823 21.2387C78.7136 21.1568 78.612 21.0257 78.5182 20.8454L74.2738 12.9786H69.326V20.4766C69.326 20.7061 69.2713 20.911 69.1618 21.0912C69.068 21.2551 68.9039 21.3371 68.6694 21.3371H66.5355C66.301 21.3371 66.129 21.2551 66.0196 21.0912C65.9102 20.911 65.8555 20.7061 65.8555 20.4766V10.1761C65.8555 9.94661 65.9024 9.74994 65.9962 9.58605C66.1056 9.42216 66.2854 9.34021 66.5355 9.34021H76.736C77.0956 9.34021 77.377 9.28285 77.5802 9.16812C77.799 9.03701 77.9632 8.86493 78.0726 8.65187C78.1821 8.43881 78.2524 8.19297 78.2837 7.91435C78.3306 7.63574 78.354 7.34073 78.354 7.02934C78.354 6.71795 78.3306 6.42294 78.2837 6.14433C78.2524 5.86571 78.1821 5.61987 78.0726 5.40681C77.9632 5.19375 77.799 5.02986 77.5802 4.91514C77.377 4.78403 77.0956 4.71847 76.736 4.71847H66.5355C66.2854 4.71847 66.1056 4.63652 65.9962 4.47263C65.9024 4.30874 65.8555 4.11207 65.8555 3.88262V1.94051C65.8555 1.71106 65.9024 1.51439 65.9962 1.3505C66.1056 1.17022 66.2854 1.08008 66.5355 1.08008H77.3457C78.2368 1.08008 78.9715 1.23578 79.5499 1.54717C80.1284 1.85856 80.5817 2.28468 80.91 2.82552C81.2539 3.36636 81.4962 3.99735 81.6369 4.71847C81.7776 5.43959 81.848 6.20988 81.848 7.02934C81.848 7.71768 81.7933 8.39783 81.6838 9.06979C81.59 9.72536 81.4024 10.3236 81.121 10.8644C80.8553 11.3889 80.4879 11.8396 80.0189 12.2165C79.5499 12.5771 78.9403 12.8065 78.1899 12.9049Z" fill="white"/>
<path d="M63.7992 1.08008C63.893 1.08008 64.0259 1.12925 64.1979 1.22758C64.3698 1.32592 64.4558 1.56356 64.4558 1.94051V3.85804C64.4558 4.23499 64.3698 4.47263 64.1979 4.57097C64.0259 4.6693 63.893 4.71847 63.7992 4.71847H50.3158C50.222 4.71847 50.0891 4.6775 49.9172 4.59555C49.7608 4.49722 49.6827 4.25957 49.6827 3.88262V1.96509C49.6827 1.57175 49.7608 1.32592 49.9172 1.22758C50.0891 1.12925 50.222 1.08008 50.3158 1.08008H63.7992ZM53.2001 15.4616C53.2001 16.2974 53.4033 16.8792 53.8098 17.207C54.2319 17.5348 54.8025 17.6987 55.5216 17.6987H63.7758C64.0259 17.6987 64.1979 17.7806 64.2917 17.9445C64.4011 18.1084 64.4558 18.3051 64.4558 18.5345V20.5012C64.4558 20.7307 64.4011 20.9273 64.2917 21.0912C64.1979 21.2551 64.0259 21.3371 63.7758 21.3371H55.4512C54.3257 21.3371 53.3877 21.1732 52.6373 20.8454C51.9026 20.5012 51.3163 20.0177 50.8786 19.395C50.4409 18.7722 50.1282 18.0265 49.9406 17.1578C49.7687 16.2728 49.6827 15.2895 49.6827 14.2078V10.9627C49.6827 10.7661 49.7139 10.5694 49.7765 10.3727C49.839 10.1597 49.9406 9.97939 50.0813 9.83189C50.2376 9.66799 50.4331 9.53688 50.6676 9.43855C50.9177 9.34021 51.2225 9.29104 51.5821 9.29104H63.682C63.9165 9.29104 64.0806 9.37299 64.1744 9.53688C64.2839 9.70077 64.3386 9.89744 64.3386 10.1269V12.069C64.3386 12.2985 64.2839 12.5033 64.1744 12.6836C64.0806 12.8475 63.9165 12.9294 63.682 12.9294H53.2001V15.4616Z" fill="white"/>
<path d="M47.8174 1.08008C47.9268 1.08008 48.0675 1.12925 48.2395 1.22758C48.4114 1.30953 48.4974 1.53897 48.4974 1.91592V3.83346C48.4974 4.03012 48.4662 4.19402 48.4036 4.32513C48.3567 4.43985 48.2942 4.52999 48.216 4.59555C48.1535 4.64472 48.0831 4.6775 48.005 4.69389C47.9268 4.71028 47.8643 4.71847 47.8174 4.71847H41.7909V20.5012C41.7909 20.8782 41.7049 21.1158 41.5329 21.2142C41.3766 21.2961 41.2437 21.3371 41.1343 21.3371H38.977C38.8832 21.3371 38.7503 21.2961 38.5783 21.2142C38.4063 21.1158 38.3204 20.8782 38.3204 20.5012V4.71847H32.2939C32.247 4.71847 32.1844 4.71028 32.1063 4.69389C32.0281 4.6775 31.9499 4.64472 31.8718 4.59555C31.8092 4.52999 31.7467 4.43985 31.6842 4.32513C31.6373 4.19402 31.6138 4.03012 31.6138 3.83346V1.91592C31.6138 1.53897 31.6998 1.30953 31.8718 1.22758C32.0437 1.12925 32.1844 1.08008 32.2939 1.08008H47.8174Z" fill="white"/>
<path d="M23.0068 1.08008C23.2412 1.08008 23.4054 1.17022 23.4992 1.3505C23.6086 1.51439 23.6633 1.71106 23.6633 1.94051V14.0357C23.6633 14.5602 23.6946 15.0436 23.7571 15.4861C23.8353 15.9287 23.9682 16.3138 24.1558 16.6416C24.3434 16.9694 24.5935 17.2234 24.9062 17.4037C25.2188 17.584 25.6096 17.6741 26.0786 17.6741H33.6997C33.9342 17.6741 34.0983 17.7642 34.1921 17.9445C34.3016 18.1084 34.3563 18.3051 34.3563 18.5345V20.4766C34.3563 20.7061 34.3016 20.911 34.1921 21.0912C34.0983 21.2551 33.9342 21.3371 33.6997 21.3371H25.9614C24.742 21.3371 23.7493 21.1486 22.9833 20.7716C22.2329 20.3783 21.6467 19.8375 21.2246 19.1491C20.8181 18.4608 20.5367 17.6495 20.3804 16.7153C20.2397 15.7648 20.1694 14.7322 20.1694 13.6178V1.94051C20.1694 1.71106 20.2163 1.51439 20.3101 1.3505C20.4195 1.17022 20.5993 1.08008 20.8494 1.08008H23.0068Z" fill="white"/>
<path d="M10.3096 0.80957C10.7317 0.80957 11.0913 0.875127 11.3883 1.00624C11.701 1.13735 11.9667 1.31763 12.1856 1.54708C12.4201 1.76014 12.6155 2.02237 12.7718 2.33376C12.9438 2.64515 13.1001 2.98933 13.2408 3.36628L19.8301 20.4028C19.8926 20.5667 19.9239 20.706 19.9239 20.8207C19.9239 20.9846 19.8692 21.1157 19.7598 21.2141C19.666 21.3124 19.5409 21.3616 19.3846 21.3616H16.8755C16.5472 21.3616 16.3205 21.1813 16.1955 20.8207L10.3565 5.55423H10.2627L7.21432 13.5931H10.122C10.4347 13.5931 10.6614 13.757 10.8021 14.0848C10.849 14.1995 10.9193 14.3798 11.0131 14.6256C11.1226 14.8551 11.2242 15.0927 11.318 15.3386C11.4274 15.5844 11.5134 15.822 11.5759 16.0515C11.6541 16.2645 11.6932 16.4284 11.6932 16.5432C11.6932 16.7726 11.6228 16.9611 11.4821 17.1086C11.3414 17.2561 11.1616 17.3298 10.9428 17.3298H5.80735L4.47073 20.8453C4.34567 21.1895 4.12681 21.3616 3.81415 21.3616H1.23471C0.875153 21.3616 0.695374 21.1813 0.695374 20.8207C0.695374 20.6568 0.718823 20.5175 0.765722 20.4028L7.30811 3.36628C7.58951 2.62877 7.95688 2.02237 8.41024 1.54708C8.86359 1.05541 9.49673 0.80957 10.3096 0.80957Z" fill="white"/>
</svg>
