<svg width="87" height="32" viewBox="0 0 87 32" fill="none" xmlns="http://www.w3.org/2000/svg">
<path d="M85.0444 19.429C85.3637 19.429 85.6081 19.4934 85.7777 19.6224C85.9473 19.7414 86.067 19.8952 86.1368 20.0837C86.2166 20.2622 86.2615 20.4656 86.2715 20.6937C86.2915 20.9219 86.3014 21.1401 86.3014 21.3484V31.169C86.3014 31.3079 86.2665 31.4319 86.1967 31.541C86.1269 31.6402 86.0171 31.6898 85.8675 31.6898H84.5806C84.4309 31.6898 84.3212 31.6402 84.2513 31.541C84.1915 31.4319 84.1616 31.3079 84.1616 31.169V22.2114H84.0867L81.483 28.5502C81.3932 28.7783 81.2984 29.0015 81.1986 29.2197C81.0989 29.4281 80.9742 29.6165 80.8245 29.7852C80.6749 29.9439 80.4903 30.0728 80.2708 30.172C80.0514 30.2712 79.772 30.3208 79.4328 30.3208C79.1934 30.3208 78.9789 30.301 78.7894 30.2613C78.5998 30.2117 78.4253 30.1274 78.2656 30.0084C78.106 29.8794 77.9514 29.7009 77.8017 29.4727C77.6621 29.2346 77.5174 28.9271 77.3678 28.5502L74.764 22.2114H74.6892V31.169C74.6892 31.3079 74.6543 31.4319 74.5844 31.541C74.5246 31.6402 74.4198 31.6898 74.2702 31.6898H72.9833C72.8336 31.6898 72.7239 31.6402 72.654 31.541C72.5842 31.4319 72.5493 31.3079 72.5493 31.169V21.3484C72.5493 21.1104 72.5593 20.8772 72.5792 20.6491C72.5992 20.411 72.649 20.2027 72.7289 20.0241C72.8087 19.8456 72.9334 19.7017 73.103 19.5926C73.2726 19.4835 73.512 19.429 73.8213 19.429H75.198C75.4673 19.429 75.6818 19.4637 75.8414 19.5331C76.001 19.5926 76.1307 19.6869 76.2305 19.8158C76.3303 19.9349 76.4101 20.0837 76.4699 20.2622C76.5298 20.4309 76.6046 20.6193 76.6944 20.8276L79.358 27.464H79.5226L82.2162 20.8276C82.306 20.6193 82.3808 20.4309 82.4407 20.2622C82.5005 20.0837 82.5803 19.9349 82.6801 19.8158C82.7799 19.6968 82.9046 19.6026 83.0542 19.5331C83.2138 19.4637 83.4283 19.429 83.6977 19.429H85.0444Z" fill="white"/>
<path d="M71.0793 19.429C71.2289 19.429 71.3337 19.4835 71.3935 19.5926C71.4634 19.6918 71.4983 19.8109 71.4983 19.9497V21.1104C71.4983 21.2492 71.4634 21.3732 71.3935 21.4823C71.3337 21.5815 71.2289 21.6311 71.0793 21.6311H64.7195C64.3504 21.6311 64.0611 21.6907 63.8516 21.8097C63.6421 21.9188 63.4824 22.0726 63.3727 22.271C63.2729 22.4694 63.2131 22.7025 63.1931 22.9703C63.1732 23.2381 63.1632 23.5258 63.1632 23.8333V27.2705C63.1632 27.578 63.1732 27.8707 63.1931 28.1484C63.2131 28.4162 63.2729 28.6494 63.3727 28.8478C63.4725 29.0362 63.6271 29.19 63.8366 29.309C64.0461 29.4181 64.3404 29.4727 64.7195 29.4727H68.9095C69.0292 29.4727 69.124 29.4429 69.1938 29.3834C69.2636 29.3239 69.3135 29.2495 69.3434 29.1602C69.3734 29.061 69.3883 28.9618 69.3883 28.8626C69.3983 28.7535 69.4033 28.6543 69.4033 28.565V26.4968H65.6622C65.5026 26.4968 65.3929 26.4422 65.333 26.3331C65.2732 26.224 65.2432 26.1 65.2432 25.9611C65.2432 25.8718 65.2333 25.7379 65.2133 25.5594C65.2033 25.3709 65.2033 25.1824 65.2133 24.9939C65.2233 24.8055 65.2582 24.6418 65.3181 24.5029C65.3879 24.364 65.5026 24.2946 65.6622 24.2946H70.9596C71.1491 24.2946 71.2838 24.364 71.3636 24.5029C71.4434 24.6319 71.4833 24.7807 71.4833 24.9493V28.9222C71.4833 29.2197 71.4634 29.5322 71.4235 29.8596C71.3935 30.177 71.3187 30.4746 71.199 30.7524C71.0793 31.0202 70.9047 31.2434 70.6753 31.4219C70.4558 31.6005 70.1515 31.6898 69.7624 31.6898H64.6447C63.8765 31.6898 63.248 31.5757 62.7592 31.3475C62.2803 31.1194 61.9062 30.802 61.6368 30.3952C61.3675 29.9885 61.1829 29.4975 61.0832 28.9222C60.9934 28.3468 60.9485 27.7119 60.9485 27.0176V24.0863C60.9485 23.4117 60.9934 22.7918 61.0832 22.2263C61.1829 21.6609 61.3625 21.1699 61.6219 20.7532C61.8912 20.3366 62.2653 20.0142 62.7442 19.7861C63.233 19.548 63.8665 19.429 64.6447 19.429H71.0793Z" fill="white"/>
<path d="M59.4742 19.429C59.5341 19.429 59.6189 19.4587 59.7286 19.5182C59.8384 19.5778 59.8932 19.7216 59.8932 19.9497V31.1839C59.8932 31.412 59.8384 31.5559 59.7286 31.6154C59.6189 31.6749 59.5341 31.7046 59.4742 31.7046H58.0975C58.0377 31.7046 57.9529 31.6749 57.8431 31.6154C57.7334 31.5559 57.6785 31.412 57.6785 31.1839V19.9497C57.6785 19.7216 57.7334 19.5778 57.8431 19.5182C57.9529 19.4587 58.0377 19.429 58.0975 19.429H59.4742Z" fill="white"/>
<path d="M52.597 19.429C53.4051 19.429 54.0685 19.5579 54.5872 19.8158C55.116 20.0638 55.53 20.411 55.8293 20.8574C56.1286 21.3038 56.3331 21.8295 56.4428 22.4346C56.5625 23.0397 56.6224 23.6944 56.6224 24.3988V26.72C56.6224 27.4342 56.5625 28.0939 56.4428 28.699C56.3331 29.3041 56.1286 29.8298 55.8293 30.2762C55.53 30.7127 55.116 31.0599 54.5872 31.3178C54.0685 31.5658 53.4051 31.6898 52.597 31.6898H47.4942C47.3545 31.6898 47.2049 31.665 47.0453 31.6154C46.8956 31.5559 46.7559 31.4765 46.6263 31.3773C46.5065 31.2781 46.4018 31.164 46.312 31.0351C46.2322 30.8962 46.1923 30.7474 46.1923 30.5887V20.4408C46.1923 20.1333 46.307 19.8902 46.5365 19.7117C46.7759 19.5232 47.0552 19.429 47.3745 19.429H52.597ZM52.5521 29.4876C52.9811 29.4876 53.3153 29.4231 53.5547 29.2941C53.8041 29.1652 53.9887 28.9866 54.1084 28.7585C54.2381 28.5204 54.3179 28.2476 54.3478 27.9401C54.3877 27.6326 54.4077 27.3003 54.4077 26.9432V24.1756C54.4077 23.8184 54.3877 23.4861 54.3478 23.1786C54.3179 22.8711 54.2381 22.6033 54.1084 22.3751C53.9887 22.147 53.8041 21.9684 53.5547 21.8395C53.3153 21.7006 52.9811 21.6311 52.5521 21.6311H48.407V29.4876H52.5521Z" fill="white"/>
<path d="M39.7506 19.2651C40.02 19.2651 40.2495 19.3048 40.439 19.3842C40.6385 19.4635 40.8081 19.5726 40.9478 19.7115C41.0974 19.8405 41.2221 19.9992 41.3219 20.1877C41.4316 20.3761 41.5314 20.5845 41.6212 20.8126L45.8261 31.1242C45.866 31.2234 45.886 31.3077 45.886 31.3772C45.886 31.4763 45.8511 31.5557 45.7812 31.6152C45.7214 31.6747 45.6416 31.7045 45.5418 31.7045H43.9406C43.7311 31.7045 43.5865 31.5954 43.5067 31.3772L39.7806 22.1369H39.7207L37.7754 27.0025H39.6309C39.8305 27.0025 39.9751 27.1017 40.0649 27.3001C40.0948 27.3696 40.1397 27.4787 40.1996 27.6275C40.2694 27.7664 40.3343 27.9102 40.3941 28.059C40.4639 28.2078 40.5188 28.3516 40.5587 28.4905C40.6086 28.6195 40.6335 28.7187 40.6335 28.7881C40.6335 28.927 40.5886 29.0411 40.4989 29.1303C40.4091 29.2196 40.2943 29.2642 40.1547 29.2642H36.8775L36.0245 31.392C35.9447 31.6003 35.8051 31.7045 35.6055 31.7045H33.9595C33.73 31.7045 33.6153 31.5954 33.6153 31.3772C33.6153 31.278 33.6303 31.1936 33.6602 31.1242L37.8352 20.8126C38.0148 20.3662 38.2492 19.9992 38.5385 19.7115C38.8278 19.4139 39.2319 19.2651 39.7506 19.2651Z" fill="white"/>
<path d="M31.091 26.5861C31.1509 26.6753 31.2556 26.8489 31.4053 27.1068C31.5549 27.3548 31.7295 27.6475 31.929 27.9847C32.1285 28.3121 32.3331 28.6593 32.5426 29.0263C32.762 29.3834 32.9616 29.7257 33.1411 30.053C33.3307 30.3704 33.4803 30.6432 33.5901 30.8714C33.7098 31.0896 33.7696 31.2285 33.7696 31.288C33.7696 31.3971 33.7447 31.4914 33.6948 31.5707C33.6449 31.6501 33.5551 31.6898 33.4254 31.6898H31.7794C31.6597 31.6898 31.5649 31.6699 31.4951 31.6302C31.4252 31.5807 31.3604 31.5013 31.3005 31.3922L28.592 26.6307H25.4345V31.169C25.4345 31.3079 25.3996 31.4319 25.3298 31.541C25.2699 31.6402 25.1652 31.6898 25.0155 31.6898H23.6538C23.5041 31.6898 23.3944 31.6402 23.3246 31.541C23.2547 31.4319 23.2198 31.3079 23.2198 31.169V24.9344C23.2198 24.7955 23.2497 24.6765 23.3096 24.5773C23.3794 24.4781 23.4942 24.4285 23.6538 24.4285H30.1632C30.3927 24.4285 30.5723 24.3938 30.7019 24.3244C30.8416 24.245 30.9464 24.1408 31.0162 24.0119C31.086 23.8829 31.1309 23.7341 31.1509 23.5655C31.1808 23.3969 31.1958 23.2183 31.1958 23.0298C31.1958 22.8414 31.1808 22.6628 31.1509 22.4942C31.1309 22.3255 31.086 22.1767 31.0162 22.0478C30.9464 21.9188 30.8416 21.8196 30.7019 21.7502C30.5723 21.6708 30.3927 21.6311 30.1632 21.6311H23.6538C23.4942 21.6311 23.3794 21.5815 23.3096 21.4823C23.2497 21.3831 23.2198 21.2641 23.2198 21.1252V19.9497C23.2198 19.8109 23.2497 19.6918 23.3096 19.5926C23.3794 19.4835 23.4942 19.429 23.6538 19.429H30.5523C31.121 19.429 31.5898 19.5232 31.9589 19.7117C32.3281 19.9001 32.6174 20.1581 32.8269 20.4854C33.0464 20.8128 33.201 21.1947 33.2908 21.6311C33.3806 22.0676 33.4254 22.5338 33.4254 23.0298C33.4254 23.4465 33.3905 23.8581 33.3207 24.2648C33.2608 24.6616 33.1411 25.0237 32.9616 25.351C32.792 25.6685 32.5575 25.9413 32.2582 26.1694C31.9589 26.3877 31.5699 26.5265 31.091 26.5861Z" fill="white"/>
<path d="M16.7782 19.2651C17.0475 19.2651 17.277 19.3048 17.4665 19.3842C17.666 19.4635 17.8356 19.5726 17.9753 19.7115C18.125 19.8405 18.2497 19.9992 18.3494 20.1877C18.4592 20.3761 18.5589 20.5845 18.6487 20.8126L22.8537 31.1242C22.8936 31.2234 22.9135 31.3077 22.9135 31.3772C22.9135 31.4763 22.8786 31.5557 22.8088 31.6152C22.7489 31.6747 22.6691 31.7045 22.5693 31.7045H20.9682C20.7587 31.7045 20.614 31.5954 20.5342 31.3772L16.8081 22.1369H16.7482L14.8029 27.0025H16.6585C16.858 27.0025 17.0026 27.1017 17.0924 27.3001C17.1223 27.3696 17.1672 27.4787 17.2271 27.6275C17.2969 27.7664 17.3618 27.9102 17.4216 28.059C17.4915 28.2078 17.5463 28.3516 17.5862 28.4905C17.6361 28.6195 17.6611 28.7187 17.6611 28.7881C17.6611 28.927 17.6162 29.0411 17.5264 29.1303C17.4366 29.2196 17.3219 29.2642 17.1822 29.2642H13.905L13.0521 31.392C12.9723 31.6003 12.8326 31.7045 12.6331 31.7045H10.987C10.7575 31.7045 10.6428 31.5954 10.6428 31.3772C10.6428 31.278 10.6578 31.1936 10.6877 31.1242L14.8627 20.8126C15.0423 20.3662 15.2768 19.9992 15.5661 19.7115C15.8554 19.4139 16.2594 19.2651 16.7782 19.2651Z" fill="white"/>
<path d="M9.13284 19.429C9.70148 19.429 10.1704 19.5232 10.5395 19.7117C10.9086 19.8902 11.1979 20.1432 11.4074 20.4705C11.6269 20.788 11.7765 21.1649 11.8563 21.6014C11.9461 22.0279 11.991 22.4892 11.991 22.9852C11.991 23.4812 11.9461 23.9524 11.8563 24.3988C11.7765 24.8352 11.6269 25.2171 11.4074 25.5445C11.1979 25.8718 10.9086 26.1347 10.5395 26.3331C10.1704 26.5216 9.70148 26.6158 9.13284 26.6158H4.01506V31.1839C4.01506 31.3227 3.98014 31.4467 3.91031 31.5559C3.85045 31.655 3.7457 31.7046 3.59606 31.7046H2.21935C2.06971 31.7046 1.95997 31.655 1.89014 31.5559C1.83028 31.4467 1.80035 31.3227 1.80035 31.1839V24.9344C1.80035 24.7955 1.83028 24.6765 1.89014 24.5773C1.95997 24.4781 2.06971 24.4285 2.21935 24.4285H8.74377C8.97322 24.4285 9.15279 24.3938 9.28248 24.3244C9.42215 24.245 9.5269 24.1408 9.59673 24.0119C9.66656 23.8829 9.71146 23.7341 9.73141 23.5655C9.76134 23.3969 9.7763 23.2183 9.7763 23.0298C9.7763 22.8414 9.76134 22.6628 9.73141 22.4942C9.71146 22.3255 9.66656 22.1767 9.59673 22.0478C9.5269 21.9188 9.42215 21.8196 9.28248 21.7502C9.15279 21.6708 8.97322 21.6311 8.74377 21.6311H2.21935C2.06971 21.6311 1.95997 21.5815 1.89014 21.4823C1.83028 21.3831 1.80035 21.2641 1.80035 21.1252C1.80035 21.0161 1.79037 20.8673 1.77042 20.6788C1.76045 20.4904 1.76045 20.3019 1.77042 20.1134C1.7804 19.9249 1.81531 19.7662 1.87517 19.6373C1.945 19.4984 2.05973 19.429 2.21935 19.429H9.13284Z" fill="white"/>
<path d="M70.3086 0.535156C71.1167 0.535156 71.7801 0.664113 72.2989 0.922026C72.8276 1.17002 73.2416 1.51721 73.5409 1.9636C73.8402 2.40999 74.0447 2.93574 74.1544 3.54084C74.2742 4.14595 74.334 4.80065 74.334 5.50495V7.82617C74.334 8.54039 74.2742 9.20006 74.1544 9.80516C74.0447 10.4103 73.8402 10.936 73.5409 11.3824C73.2416 11.8189 72.8276 12.1661 72.2989 12.424C71.7801 12.672 71.1167 12.796 70.3086 12.796H65.2058C65.0662 12.796 64.9165 12.7712 64.7569 12.7216C64.6072 12.6621 64.4676 12.5827 64.3379 12.4835C64.2182 12.3843 64.1134 12.2702 64.0236 12.1413C63.9438 12.0024 63.9039 11.8536 63.9039 11.6949V1.54697C63.9039 1.23946 64.0187 0.996424 64.2481 0.817869C64.4875 0.629394 64.7669 0.535156 65.0861 0.535156H70.3086ZM70.2637 10.5938C70.6927 10.5938 71.0269 10.5293 71.2663 10.4003C71.5157 10.2714 71.7003 10.0928 71.82 9.86468C71.9497 9.62661 72.0295 9.35381 72.0594 9.0463C72.0994 8.73879 72.1193 8.40648 72.1193 8.04937V5.28176C72.1193 4.92465 72.0994 4.59233 72.0594 4.28482C72.0295 3.97731 71.9497 3.70948 71.82 3.48132C71.7003 3.25317 71.5157 3.07461 71.2663 2.94566C71.0269 2.80678 70.6927 2.73734 70.2637 2.73734H66.1186V10.5938H70.2637Z" fill="white"/>
<path d="M62.5917 0.535156C62.6516 0.535156 62.7364 0.564916 62.8461 0.624434C62.9559 0.683953 63.0107 0.827789 63.0107 1.05594V2.21655C63.0107 2.44471 62.9559 2.58854 62.8461 2.64806C62.7364 2.70758 62.6516 2.73734 62.5917 2.73734H53.9873C53.9274 2.73734 53.8426 2.71254 53.7329 2.66294C53.6331 2.60342 53.5833 2.45959 53.5833 2.23143V1.07082C53.5833 0.832749 53.6331 0.683953 53.7329 0.624434C53.8426 0.564916 53.9274 0.535156 53.9873 0.535156H62.5917ZM55.8279 9.23974C55.8279 9.74564 55.9576 10.0978 56.217 10.2962C56.4863 10.4946 56.8504 10.5938 57.3094 10.5938H62.5768C62.7364 10.5938 62.8461 10.6434 62.906 10.7426C62.9758 10.8418 63.0107 10.9608 63.0107 11.0997V12.2901C63.0107 12.4289 62.9758 12.548 62.906 12.6472C62.8461 12.7464 62.7364 12.796 62.5768 12.796H57.2645C56.5462 12.796 55.9476 12.6968 55.4687 12.4984C54.9999 12.2901 54.6258 11.9974 54.3464 11.6205C54.0671 11.2435 53.8676 10.7922 53.7479 10.2664C53.6381 9.73077 53.5833 9.13558 53.5833 8.48088V6.51677C53.5833 6.39773 53.6032 6.27869 53.6431 6.15966C53.683 6.0307 53.7479 5.92158 53.8376 5.8323C53.9374 5.73311 54.0621 5.65375 54.2118 5.59423C54.3714 5.53471 54.5659 5.50495 54.7954 5.50495H62.5169C62.6666 5.50495 62.7713 5.55455 62.8312 5.65375C62.901 5.75294 62.9359 5.87198 62.9359 6.01086V7.18635C62.9359 7.32523 62.901 7.44922 62.8312 7.55834C62.7713 7.65754 62.6666 7.70714 62.5169 7.70714H55.8279V9.23974Z" fill="white"/>
<path d="M50.3107 7.69226C50.3706 7.78153 50.4754 7.95513 50.625 8.21304C50.7746 8.46104 50.9492 8.75367 51.1487 9.09094C51.3483 9.41829 51.5528 9.76548 51.7623 10.1325C51.9818 10.4896 52.1813 10.8319 52.3609 11.1592C52.5504 11.4766 52.7 11.7494 52.8098 11.9776C52.9295 12.1958 52.9893 12.3347 52.9893 12.3942C52.9893 12.5033 52.9644 12.5976 52.9145 12.6769C52.8646 12.7563 52.7749 12.796 52.6452 12.796H50.9991C50.8794 12.796 50.7846 12.7761 50.7148 12.7364C50.6449 12.6869 50.5801 12.6075 50.5202 12.4984L47.8117 7.7369H44.6543V12.2752C44.6543 12.4141 44.6193 12.5381 44.5495 12.6472C44.4896 12.7464 44.3849 12.796 44.2353 12.796H42.8735C42.7239 12.796 42.6141 12.7464 42.5443 12.6472C42.4745 12.5381 42.4395 12.4141 42.4395 12.2752V6.04062C42.4395 5.90174 42.4695 5.7827 42.5293 5.68351C42.5992 5.58431 42.7139 5.53471 42.8735 5.53471H49.383C49.6124 5.53471 49.792 5.49999 49.9217 5.43055C50.0613 5.35119 50.1661 5.24704 50.2359 5.11808C50.3058 4.98912 50.3507 4.84033 50.3706 4.67169C50.4005 4.50306 50.4155 4.3245 50.4155 4.13603C50.4155 3.94755 50.4005 3.769 50.3706 3.60036C50.3507 3.43172 50.3058 3.28293 50.2359 3.15397C50.1661 3.02501 50.0613 2.92582 49.9217 2.85638C49.792 2.77702 49.6124 2.73734 49.383 2.73734H42.8735C42.7139 2.73734 42.5992 2.68774 42.5293 2.58854C42.4695 2.48935 42.4395 2.37031 42.4395 2.23143V1.05594C42.4395 0.917066 42.4695 0.798029 42.5293 0.698832C42.5992 0.589715 42.7139 0.535156 42.8735 0.535156H49.772C50.3407 0.535156 50.8096 0.629394 51.1787 0.817869C51.5478 1.00634 51.8371 1.26426 52.0466 1.59161C52.2661 1.91896 52.4207 2.30087 52.5105 2.73734C52.6003 3.17381 52.6452 3.64004 52.6452 4.13603C52.6452 4.55265 52.6103 4.96432 52.5404 5.37103C52.4806 5.76782 52.3609 6.1299 52.1813 6.45725C52.0117 6.77468 51.7772 7.04747 51.478 7.27563C51.1787 7.49386 50.7896 7.63274 50.3107 7.69226Z" fill="white"/>
<path d="M41.1274 0.535156C41.1872 0.535156 41.272 0.564916 41.3817 0.624434C41.4915 0.683953 41.5464 0.827789 41.5464 1.05594V2.21655C41.5464 2.44471 41.4915 2.58854 41.3817 2.64806C41.272 2.70758 41.1872 2.73734 41.1274 2.73734H32.5229C32.463 2.73734 32.3782 2.71254 32.2685 2.66294C32.1687 2.60342 32.1189 2.45959 32.1189 2.23143V1.07082C32.1189 0.832749 32.1687 0.683953 32.2685 0.624434C32.3782 0.564916 32.463 0.535156 32.5229 0.535156H41.1274ZM34.3635 9.23974C34.3635 9.74564 34.4932 10.0978 34.7526 10.2962C35.0219 10.4946 35.3861 10.5938 35.845 10.5938H41.1124C41.272 10.5938 41.3818 10.6434 41.4416 10.7426C41.5114 10.8418 41.5464 10.9608 41.5464 11.0997V12.2901C41.5464 12.4289 41.5114 12.548 41.4416 12.6472C41.3818 12.7464 41.272 12.796 41.1124 12.796H35.8001C35.0818 12.796 34.4832 12.6968 34.0044 12.4984C33.5355 12.2901 33.1614 11.9974 32.882 11.6205C32.6027 11.2435 32.4032 10.7922 32.2835 10.2664C32.1737 9.73077 32.1189 9.13558 32.1189 8.48088V6.51677C32.1189 6.39773 32.1388 6.27869 32.1787 6.15966C32.2186 6.0307 32.2835 5.92158 32.3733 5.8323C32.473 5.73311 32.5977 5.65375 32.7474 5.59423C32.907 5.53471 33.1015 5.50495 33.331 5.50495H41.0525C41.2022 5.50495 41.3069 5.55455 41.3668 5.65375C41.4366 5.75294 41.4715 5.87198 41.4715 6.01086V7.18635C41.4715 7.32523 41.4366 7.44922 41.3668 7.55834C41.3069 7.65754 41.2022 7.70714 41.0525 7.70714H34.3635V9.23974Z" fill="white"/>
<path d="M30.9285 0.535156C30.9983 0.535156 31.0881 0.564916 31.1979 0.624434C31.3076 0.674033 31.3625 0.812909 31.3625 1.04106V2.20167C31.3625 2.32071 31.3425 2.41991 31.3026 2.49927C31.2727 2.56871 31.2328 2.62326 31.1829 2.66294C31.143 2.6927 31.0981 2.71254 31.0482 2.72246C30.9983 2.73238 30.9584 2.73734 30.9285 2.73734H27.0827V12.2901C27.0827 12.5182 27.0278 12.6621 26.9181 12.7216C26.8183 12.7712 26.7335 12.796 26.6637 12.796H25.287C25.2271 12.796 25.1423 12.7712 25.0326 12.7216C24.9228 12.6621 24.868 12.5182 24.868 12.2901V2.73734H21.0222C20.9922 2.73734 20.9523 2.73238 20.9024 2.72246C20.8526 2.71254 20.8027 2.6927 20.7528 2.66294C20.7129 2.62326 20.673 2.56871 20.6331 2.49927C20.6032 2.41991 20.5882 2.32071 20.5882 2.20167V1.04106C20.5882 0.812909 20.6431 0.674033 20.7528 0.624434C20.8625 0.564916 20.9523 0.535156 21.0222 0.535156H30.9285Z" fill="white"/>
<path d="M15.0956 0.535156C15.2453 0.535156 15.35 0.589715 15.4099 0.698832C15.4797 0.798029 15.5146 0.917066 15.5146 1.05594V8.37672C15.5146 8.69415 15.5346 8.98678 15.5745 9.25462C15.6244 9.52245 15.7092 9.75556 15.8289 9.95396C15.9486 10.1524 16.1082 10.3061 16.3077 10.4152C16.5072 10.5243 16.7567 10.5789 17.0559 10.5789H21.9193C22.069 10.5789 22.1737 10.6335 22.2336 10.7426C22.3034 10.8418 22.3383 10.9608 22.3383 11.0997V12.2752C22.3383 12.4141 22.3034 12.5381 22.2336 12.6472C22.1737 12.7464 22.069 12.796 21.9193 12.796H16.9811C16.203 12.796 15.5695 12.6819 15.0807 12.4537C14.6018 12.2157 14.2277 11.8883 13.9583 11.4717C13.699 11.0551 13.5194 10.564 13.4196 9.9986C13.3298 9.42325 13.2849 8.79831 13.2849 8.12377V1.05594C13.2849 0.917066 13.3149 0.798029 13.3747 0.698832C13.4446 0.589715 13.5593 0.535156 13.7189 0.535156H15.0956Z" fill="white"/>
<path d="M6.99295 0.371582C7.26231 0.371582 7.49176 0.411261 7.68131 0.490619C7.88083 0.569977 8.05043 0.679094 8.19009 0.81797C8.33974 0.946927 8.46444 1.10564 8.5642 1.29412C8.67394 1.48259 8.7737 1.69091 8.86348 1.91906L13.0684 12.2306C13.1083 12.3298 13.1283 12.4142 13.1283 12.4836C13.1283 12.5828 13.0934 12.6622 13.0235 12.7217C12.9637 12.7812 12.8839 12.8109 12.7841 12.8109H11.1829C10.9734 12.8109 10.8288 12.7018 10.749 12.4836L7.02288 3.24335H6.96302L5.01767 8.10899H6.87324C7.07276 8.10899 7.21742 8.20818 7.3072 8.40658C7.33713 8.47602 7.38202 8.58513 7.44188 8.73393C7.51171 8.87281 7.57656 9.01664 7.63642 9.16544C7.70625 9.31424 7.76112 9.45807 7.80102 9.59695C7.8509 9.72591 7.87584 9.8251 7.87584 9.89454C7.87584 10.0334 7.83095 10.1475 7.74117 10.2368C7.65138 10.3261 7.53665 10.3707 7.39699 10.3707H4.11981L3.26685 12.4985C3.18704 12.7068 3.04738 12.8109 2.84785 12.8109H1.20178C0.972331 12.8109 0.857605 12.7018 0.857605 12.4836C0.857605 12.3844 0.872569 12.3001 0.902498 12.2306L5.07753 1.91906C5.2571 1.47267 5.49154 1.10564 5.78085 0.81797C6.07016 0.520378 6.47419 0.371582 6.99295 0.371582Z" fill="white"/>
</svg>
