<svg width="25" height="24" viewBox="0 0 25 24" fill="none" xmlns="http://www.w3.org/2000/svg">
<path fill-rule="evenodd" clip-rule="evenodd" d="M20.277 4.42997C20.5241 4.32596 20.7946 4.29008 21.0603 4.32608C21.326 4.36208 21.5771 4.46863 21.7877 4.63465C21.9982 4.80067 22.1604 5.02008 22.2574 5.27005C22.3543 5.52002 22.3825 5.79141 22.339 6.05597L20.071 19.813C19.851 21.14 18.395 21.901 17.178 21.24C16.16 20.687 14.648 19.835 13.288 18.946C12.608 18.501 10.525 17.076 10.781 16.062C11.001 15.195 14.501 11.937 16.501 9.99997C17.286 9.23897 16.928 8.79997 16.001 9.49997C13.699 11.238 10.003 13.881 8.78099 14.625C7.70299 15.281 7.14099 15.393 6.46899 15.281C5.24299 15.077 4.10599 14.761 3.17799 14.376C1.92399 13.856 1.98499 12.132 3.17699 11.63L20.277 4.42997Z" fill="#222A2D"/>
</svg>
