<svg width="62" height="83" viewBox="0 0 62 83" fill="none" xmlns="http://www.w3.org/2000/svg">
<path d="M34.4356 6.00819L31.3801 1.53969L31.2089 1.28832L30.7865 0.670654L30.364 1.28925L30.1928 1.53969L27.1383 6.00725L0.201477 45.4089V59.2938V62.3793L12.9448 70.0922L28.9378 81.0271L30.7865 82.2904L32.6342 81.0271L48.6281 70.0931L61.3714 62.3793V45.4089L34.4356 6.00819ZM2.75067 46.3088L26.1721 12.0484L20.5915 46.9517L10.3644 53.1424L2.75067 48.5346V46.3088ZM2.75067 60.8356V51.6202L9.12722 55.471L10.3965 65.4649L2.75067 60.8356ZM12.9457 67.0067L12.8815 66.9684L12.9457 57.7763L23.1317 63.9277L29.0002 77.9836L12.9457 67.0067ZM27.2764 55.0085L23.1407 60.8758L14.9583 55.9233L23.1407 48.4945L29.3015 7.47059L30.0734 6.34178L27.2764 55.0085ZM32.2714 7.47059L38.4332 48.4945L46.5888 55.8999L38.4109 60.8496L34.2938 55.0085L31.4986 6.34085L32.2714 7.47059ZM48.629 67.0076L32.5718 77.9836L38.4242 63.9277L48.6281 57.751L48.6923 66.9693L48.629 67.0076ZM58.8231 60.8366L51.1773 65.4649L52.4502 55.4374L58.8231 51.58V60.8366ZM58.8231 48.4945L51.1773 53.1227L40.9815 46.9517L35.4018 12.0494L58.8231 46.3088V48.4945Z" fill="white"/>
</svg>
