<svg width="21" height="16" viewBox="0 0 21 16" fill="none" xmlns="http://www.w3.org/2000/svg">
<path d="M17.7684 1.32785C16.4384 0.707849 14.9984 0.257849 13.4984 -0.00215127C13.4853 -0.00257187 13.4722 -0.000103788 13.4601 0.00507949C13.448 0.0102628 13.4372 0.0180354 13.4284 0.0278489C13.2484 0.357849 13.0384 0.787849 12.8984 1.11785C11.3074 0.877849 9.68944 0.877849 8.09844 1.11785C7.95844 0.777849 7.74844 0.357849 7.55844 0.0278489C7.54844 0.00784894 7.51844 -0.00215127 7.48844 -0.00215127C5.98844 0.257849 4.55844 0.707849 3.21844 1.32785C3.20844 1.32785 3.19844 1.33785 3.18844 1.34785C0.468439 5.41785 -0.281561 9.37785 0.0884388 13.2978C0.0884388 13.3178 0.0984387 13.3378 0.118439 13.3478C1.91844 14.6678 3.64844 15.4678 5.35844 15.9978C5.38844 16.0078 5.41844 15.9978 5.42844 15.9778C5.82844 15.4278 6.18844 14.8478 6.49844 14.2378C6.51844 14.1978 6.49844 14.1578 6.45844 14.1478C5.88844 13.9278 5.34844 13.6678 4.81844 13.3678C4.77844 13.3478 4.77844 13.2878 4.80844 13.2578C4.91844 13.1778 5.02844 13.0878 5.13844 13.0078C5.15844 12.9878 5.18844 12.9878 5.20844 12.9978C8.64844 14.5678 12.3584 14.5678 15.7584 12.9978C15.7784 12.9878 15.8084 12.9878 15.8284 13.0078C15.9384 13.0978 16.0484 13.1778 16.1584 13.2678C16.1984 13.2978 16.1984 13.3578 16.1484 13.3778C15.6284 13.6878 15.0784 13.9378 14.5084 14.1578C14.4684 14.1678 14.4584 14.2178 14.4684 14.2478C14.7884 14.8578 15.1484 15.4378 15.5384 15.9878C15.5684 15.9978 15.5984 16.0078 15.6284 15.9978C17.3484 15.4678 19.0784 14.6678 20.8784 13.3478C20.8984 13.3378 20.9084 13.3178 20.9084 13.2978C21.3484 8.76785 20.1784 4.83785 17.8084 1.34785C17.7984 1.33785 17.7884 1.32785 17.7684 1.32785ZM7.01844 10.9078C5.98844 10.9078 5.12844 9.95785 5.12844 8.78785C5.12844 7.61785 5.96844 6.66785 7.01844 6.66785C8.07844 6.66785 8.91844 7.62785 8.90844 8.78785C8.90844 9.95785 8.06844 10.9078 7.01844 10.9078ZM13.9884 10.9078C12.9584 10.9078 12.0984 9.95785 12.0984 8.78785C12.0984 7.61785 12.9384 6.66785 13.9884 6.66785C15.0484 6.66785 15.8884 7.62785 15.8784 8.78785C15.8784 9.95785 15.0484 10.9078 13.9884 10.9078Z" fill="#222A2D"/>
</svg>
