<svg width="40" height="51" viewBox="0 0 40 51" fill="none" xmlns="http://www.w3.org/2000/svg">
<path d="M21.9708 4.01821L20.0209 1.31359L19.9117 1.16145L19.6421 0.787598L19.3725 1.16201L19.2633 1.31359L17.314 4.01764L0.124268 27.866V36.27V38.1376L8.25641 42.8059L18.4624 49.4244L19.6421 50.189L20.8212 49.4244L31.0278 42.8065L39.1599 38.1376V27.866L21.9708 4.01821ZM1.75104 28.4107L16.6974 7.67414L13.1361 28.7998L6.60973 32.5468L1.75104 29.7579V28.4107ZM1.75104 37.2032V31.6255L5.82023 33.9562L6.63021 40.0051L1.75104 37.2032ZM8.25698 40.9384L8.21602 40.9152L8.25698 35.3515L14.7572 39.0748L18.5022 47.5823L8.25698 40.9384ZM17.4021 33.6763L14.7629 37.2276L9.54133 34.23L14.7629 29.7336L18.6945 4.90335L19.187 4.22012L17.4021 33.6763ZM20.5897 4.90335L24.5218 29.7336L29.7263 34.2158L24.5076 37.2117L21.8803 33.6763L20.0966 4.21956L20.5897 4.90335ZM31.0283 40.9389L20.7814 47.5823L24.5161 39.0748L31.0278 35.3363L31.0687 40.9157L31.0283 40.9389ZM37.5337 37.2038L32.6545 40.0051L33.4668 33.9359L37.5337 31.6011V37.2038ZM37.5337 29.7336L32.6545 32.5349L26.148 28.7998L22.5873 7.67471L37.5337 28.4107V29.7336Z" fill="url(#paint0_radial_10_2)"/>
<defs>
<radialGradient id="paint0_radial_10_2" cx="0" cy="0" r="1" gradientUnits="userSpaceOnUse" gradientTransform="translate(19.6427 25.4883) scale(22.3391 22.2127)">
<stop stop-color="#BCFFEB"/>
<stop offset="1" stop-color="#81FCED"/>
</radialGradient>
</defs>
</svg>
